<?xml version="1.0" encoding="UTF-8"?>
<svg version="1.1" xmlns="http://www.w3.org/2000/svg" width="1173" height="1007">
<text x="50" y="520" font-family="Arial, sans-serif" font-size="72" font-weight="bold" fill="#1BB685" text-anchor="start" dominant-baseline="middle">BideshStudy</text>
<path d="M0 0 C1.30179199 0.17160645 2.60358398 0.34321289 3.94482422 0.52001953 C52.58461473 7.01961893 100.42483122 20.41990182 145 41 C146.0115918 41.46664062 147.02318359 41.93328125 148.06542969 42.4140625 C196.18375921 64.7627185 239.87170978 94.18165578 279 130 C279.49467773 130.44956055 279.98935547 130.89912109 280.49902344 131.36230469 C290.49680233 140.44951664 300.46530301 149.65159383 309.234375 159.953125 C311.3943342 162.45714849 313.63487993 164.87997698 315.875 167.3125 C320.32893064 172.20781116 324.59318605 177.20944775 328.71142578 182.39013672 C330.09391078 184.1173262 331.49852811 185.82526952 332.90234375 187.53515625 C349.5037676 208.04682236 364.52671294 230.74587973 377 254 C377.47018555 254.87172852 377.94037109 255.74345703 378.42480469 256.64160156 C382.04235496 263.38137238 385.55225992 270.17194333 389 277 C389.46937988 277.92796387 389.93875977 278.85592773 390.42236328 279.81201172 C427.92604881 354.54352379 444.17862607 439.71575912 415.1875 661.1875 C406.93007195 685.64639125 396.56422359 708.96144883 385 732 C384.56945313 732.85835449 384.13890625 733.71670898 383.6953125 734.60107422 C375.01565096 751.76015343 364.92502479 768.18542511 354 784 C353.53094238 784.6815918 353.06188477 785.36318359 352.57861328 786.06542969 C345.72594585 795.99309889 338.57638948 805.61423552 331 815 C330.26394531 815.91910156 329.52789063 816.83820312 328.76953125 817.78515625 C320.54680089 827.95498123 312.16417223 838.13540866 302.76171875 847.2421875 C300.88981219 849.10994349 299.1629084 851.05904565 297.4375 853.0625 C292.48733917 858.79662295 287.15099966 863.93382303 281.41015625 868.8671875 C279.52929237 870.53161486 277.69394923 872.21897076 275.87109375 873.9453125 C268.47322725 880.94810638 260.87261047 887.416934 252.78857422 893.60986328 C250.95320614 895.03636968 249.1477099 896.49407404 247.34765625 897.96484375 C238.54690321 905.15291763 229.46709663 911.71898933 220 918 C219.34870117 918.43634766 218.69740234 918.87269531 218.02636719 919.32226562 C154.40006193 961.86585755 82.09521349 989.26943745 6.3125 999.875 C5.62551025 999.97259613 4.93852051 1000.07019226 4.23071289 1000.17074585 C-18.08535696 1003.28973735 -40.48354923 1004.38778585 -63 1004.3125 C-64.14609741 1004.31067719 -65.29219482 1004.30885437 -66.47302246 1004.30697632 C-85.80733342 1004.25554637 -104.81920059 1003.4658643 -124 1001 C-125.02429108 1000.8691803 -125.02429108 1000.8691803 -126.0692749 1000.73571777 C-145.61099893 998.2202171 -164.85941843 994.71422727 -184 990 C-185.03012207 989.75056641 -186.06024414 989.50113281 -187.12158203 989.24414062 C-216.695654 981.99846971 -245.32239751 971.63533461 -273 959 C-274.00949707 958.54270508 -275.01899414 958.08541016 -276.05908203 957.61425781 C-316.01179093 939.40447515 -353.74301608 915.21224087 -387.01171875 886.55078125 C-389.85999001 884.1195118 -392.76152084 881.77419105 -395.6875 879.4375 C-400.31686032 875.67614474 -404.49483504 871.6077755 -408.66015625 867.34375 C-410.7484622 865.25195773 -412.88258997 863.29831464 -415.125 861.375 C-421.22520868 856.13397564 -426.72527286 850.41663435 -431.9609375 844.3203125 C-434.0352334 841.95990682 -436.16409123 839.66112559 -438.30908203 837.36523438 C-444.14562657 831.1119238 -449.69388336 824.71489483 -455 818 C-455.50225098 817.37029297 -456.00450195 816.74058594 -456.52197266 816.09179688 C-518.0354307 738.86852448 -556.0685031 644.87489843 -566 536 C-566.05784668 535.21915039 -566.11569336 534.43830078 -566.17529297 533.63378906 C-571.89153782 453.26711816 -557.42828905 370.63272044 -495 240 C-494.05017049 238.45740715 -493.10098614 236.91441692 -492.15234375 235.37109375 C-479.26453588 214.54635897 -464.79847008 194.71632396 -449 176 C-448.54222168 175.45730469 -448.08444336 174.91460937 -447.61279297 174.35546875 C-433.8232788 158.0698494 -419.33997431 141.65840928 -403.0703125 127.79296875 C-400.6172589 125.66853176 -398.25296853 123.45811363 -395.875 121.25 C-390.12728989 116.01477433 -384.08864657 111.24265585 -377.93066406 106.50244141 C-375.95410245 104.96428256 -374.00298366 103.397989 -372.0546875 101.82421875 C-304.8901325 47.94123577 -220.29361137 13.17951784 -125 0 C-123.30617188 -0.22429687 -123.30617188 -0.22429687 -121.578125 -0.453125 C-81.80838683 -5.57900236 -39.72126832 -5.42062309 0 0 Z " fill="#1BB685" transform="translate(732,3)"/>
<path d="M0 0 C1.30179199 0.17160645 2.60358398 0.34321289 3.94482422 0.52001953 C67.54968157 9.01935902 130.62689829 29.32079243 186 62 C184.78792974 66.00985648 182.13036329 67.35896149 178.59570312 69.29638672 C177.84224609 69.6935791 177.08878906 70.09077148 176.3125 70.5 C175.51650391 70.92941895 174.72050781 71.35883789 173.90039062 71.80126953 C171.27301122 73.2125505 168.63655042 74.60594 166 76 C164.2016395 76.96580438 162.40346444 77.93195413 160.60546875 78.8984375 C137.41798118 91.27040827 113.59305585 101.75390963 89 111 C87.90204102 111.41411133 86.80408203 111.82822266 85.67285156 112.25488281 C72.42706384 117.2205647 59.14074736 121.60251108 45.49023438 125.30712891 C43.09036515 125.97485722 40.70925536 126.68650713 38.328125 127.41796875 C20.82860487 132.73993228 2.90039134 136.31491158 -15 140 C-16.11632812 140.22993652 -17.23265625 140.45987305 -18.3828125 140.69677734 C-36.41296587 144.36591355 -54.50316046 146.84038802 -72.8125 148.625 C-74.07497559 148.74818604 -75.33745117 148.87137207 -76.63818359 148.99829102 C-80.42387727 149.35432239 -84.21080966 149.68345649 -88 150 C-89.12841309 150.09933838 -90.25682617 150.19867676 -91.41943359 150.30102539 C-105.91560231 151.40345932 -120.47088316 151.19959521 -135 151.1875 C-136.07350519 151.18709969 -136.07350519 151.18709969 -137.16869736 151.18669128 C-158.17069964 151.17684666 -179.08043969 151.09584753 -200 149 C-201.0433551 148.8981842 -201.0433551 148.8981842 -202.10778809 148.79431152 C-218.46727811 147.19635771 -234.78302493 145.44467388 -250.87890625 142.02734375 C-254.62276534 141.23711469 -258.37770037 140.61042739 -262.15553284 140.0115509 C-272.2765923 138.39754686 -282.18184401 136.22188554 -292.125 133.75 C-292.92936493 133.55169586 -293.73372986 133.35339172 -294.56246948 133.14907837 C-314.72234387 128.17307208 -334.47161747 122.25345631 -354.1875 115.75 C-354.98801788 115.48738373 -355.78853577 115.22476746 -356.61331177 114.95419312 C-358.90468999 114.20021844 -361.19296745 113.43752076 -363.48046875 112.671875 C-364.50855148 112.33471214 -364.50855148 112.33471214 -365.55740356 111.99073792 C-369.34762643 110.70925903 -372.65442107 109.1968564 -376 107 C-374.63964483 103.83009169 -373.26535853 102.14176263 -370.4921875 100.109375 C-369.76555908 99.573125 -369.03893066 99.036875 -368.2902832 98.484375 C-367.09471802 97.62585938 -367.09471802 97.62585938 -365.875 96.75 C-365.03606201 96.1415625 -364.19712402 95.533125 -363.33276367 94.90625 C-292.57725444 44.02588381 -211.61537934 10.67860841 -125 0 C-123.30617188 -0.22429687 -123.30617188 -0.22429687 -121.578125 -0.453125 C-81.80838683 -5.57900236 -39.72126832 -5.42062309 0 0 Z " fill="#1CB685" transform="translate(732,3)"/>
<path d="M0 0 C3.69311681 2.33301734 7.03860295 4.92852856 10.37890625 7.73828125 C19.76038441 15.99774977 19.76038441 15.99774977 31.28125 19.0234375 C32.23773437 19.03761719 33.19421875 19.05179687 34.1796875 19.06640625 C36.98367336 18.82939312 38.4462451 18.09877369 40.90625 16.8359375 C42.94140625 16.75390625 42.94140625 16.75390625 44.96875 17.0234375 C45.64035156 17.09949219 46.31195312 17.17554688 47.00390625 17.25390625 C49.57754791 18.04132433 50.46142682 18.51963367 51.90625 20.8359375 C51.86063089 22.83903122 51.80368917 24.84322683 51.66162109 26.84179688 C51.37718617 32.01062922 51.21740888 36.7094333 54.56054688 40.91894531 C59.21175483 45.22295042 64.49331944 48.57780473 69.90625 51.8359375 C70.89625 52.4959375 71.88625 53.1559375 72.90625 53.8359375 C75.60104171 54.18768924 75.60104171 54.18768924 78.6328125 54.21484375 C79.7465625 54.24900391 80.8603125 54.28316406 82.0078125 54.31835938 C83.17054688 54.34478516 84.33328125 54.37121094 85.53125 54.3984375 C87.83604869 54.45808813 90.14075019 54.52166934 92.4453125 54.58984375 C93.46834473 54.61377197 94.49137695 54.6377002 95.54541016 54.66235352 C97.90625 54.8359375 97.90625 54.8359375 98.90625 55.8359375 C98.99256874 57.17861163 99.01331473 58.52568072 99.00390625 59.87109375 C99.00068359 60.67998047 98.99746094 61.48886719 98.99414062 62.32226562 C98.98576172 63.17240234 98.97738281 64.02253906 98.96875 64.8984375 C98.96423828 65.75244141 98.95972656 66.60644531 98.95507812 67.48632812 C98.94325373 69.60289413 98.92531769 71.71942435 98.90625 73.8359375 C99.61394531 74.07699219 100.32164062 74.31804687 101.05078125 74.56640625 C104.35446536 76.03521246 106.767858 77.89141788 109.59375 80.1484375 C116.34649171 85.46145854 123.26831047 90.5107748 130.265625 95.49609375 C133.38338445 97.72034897 136.44641384 100.0001027 139.484375 102.33203125 C140.22719727 102.88906738 140.97001953 103.44610352 141.73535156 104.02001953 C143.13691313 105.07134833 144.52551067 106.14029265 145.89746094 107.22998047 C150.27040534 110.4608689 153.73585989 111.63445804 159.19677734 111.32250977 C164.53699581 110.36350315 169.3067338 108.13612967 174.21875 105.8984375 C175.35014404 105.40206787 176.48153809 104.90569824 177.6472168 104.39428711 C181.07369888 102.8897139 184.49002083 101.36361744 187.90625 99.8359375 C209.35627164 90.37917989 228.3592243 83.97722905 252.09375 85.0234375 C253.22321045 85.06827271 253.22321045 85.06827271 254.37548828 85.11401367 C261.14218162 85.54453946 267.40718274 87.05088946 272.96875 91.0234375 C275.03339318 94.02050018 275.4651977 96.04346546 275.47265625 99.67578125 C272.05712933 112.70189425 254.49913221 121.93019826 243.90625 128.8359375 C243.33084473 129.21524414 242.75543945 129.59455078 242.16259766 129.98535156 C224.1873087 141.76944887 203.96604817 149.02536626 183.28125 154.53515625 C178.99709002 155.75416888 175.63172371 156.98692596 172.93334961 160.77929688 C167.41704415 171.82502001 165.52012762 185.88190277 162.47753906 197.80786133 C161.64795638 201.05590933 160.81237404 204.30237812 159.9765625 207.54882812 C159.44755358 209.61709467 158.91889465 211.68545076 158.390625 213.75390625 C158.14068787 214.72257126 157.89075073 215.69123627 157.63323975 216.68925476 C157.40590149 217.58481583 157.17856323 218.48037689 156.94433594 219.40307617 C156.74322205 220.18913742 156.54210815 220.97519867 156.3348999 221.78507996 C155.80395546 223.97616568 155.80395546 223.97616568 155.90625 226.8359375 C156.50953125 227.15046875 157.1128125 227.465 157.734375 227.7890625 C166.98256992 232.74132171 166.98256992 232.74132171 168.90625 235.8359375 C170.09385002 244.20437485 170.09385002 244.20437485 167.65234375 247.55859375 C165.63576801 249.03380688 163.94227236 249.57732411 161.53125 250.2109375 C157.17056938 251.59134776 154.72729874 253.10219652 151.90625 256.8359375 C148.93356215 263.0099815 147.87450741 269.55226695 146.65234375 276.25 C145.96241947 279.56597114 145.0478772 282.6511406 143.90625 285.8359375 C144.586875 285.6915625 145.2675 285.5471875 145.96875 285.3984375 C150.0127792 286.00073972 151.71931169 287.88359184 154.44140625 290.83203125 C156.66702534 293.87667817 157.11398944 296.09662752 156.90625 299.8359375 C154.49024959 304.55812012 151.00273041 305.89645993 146.22265625 307.55078125 C141.77067226 310.020769 139.52314103 312.83406049 138.0456543 317.62866211 C137.27464384 321.01961103 136.60864609 324.41787638 135.96875 327.8359375 C130.50167278 354.34190907 130.50167278 354.34190907 120.9921875 361.57421875 C115.21580986 365.06817002 108.89957758 366.99760408 102.15625 366.8984375 C101.35703125 366.88941406 100.5578125 366.88039063 99.734375 366.87109375 C98.82945312 366.85369141 98.82945312 366.85369141 97.90625 366.8359375 C97.71346557 327.06302575 98.19798652 287.30239356 99.52880859 247.55004883 C100.22769072 225.98552992 100.52167754 204.40787841 100.90625 182.8359375 C99.88942139 183.18672363 98.87259277 183.53750977 97.82495117 183.89892578 C92.91609597 185.59077047 88.005315 187.27697704 83.09375 188.9609375 C82.18798218 189.27151093 81.28221436 189.58208435 80.34899902 189.90206909 C64.04276991 195.48568149 47.67590599 200.86781486 31.26245117 206.12744141 C22.92301261 208.80890974 14.68567668 211.58776683 6.53564453 214.8059082 C3.38234116 216.04117161 0.19370446 217.11597371 -3.03125 218.1484375 C-10.46811971 220.58624956 -17.81481229 223.24501669 -25.15405273 225.96191406 C-33.00130069 228.85434016 -33.00130069 228.85434016 -36.95703125 229.9921875 C-37.99214844 230.29125 -39.02726563 230.5903125 -40.09375 230.8984375 C-40.939375 231.11628906 -41.785 231.33414063 -42.65625 231.55859375 C-47.66962792 234.1857966 -50.86523913 238.60129243 -52.78125 243.8671875 C-53.2378777 245.35101899 -53.67453015 246.84110658 -54.09375 248.3359375 C-54.45811157 249.55240967 -54.45811157 249.55240967 -54.82983398 250.79345703 C-57.05830991 258.3629734 -58.96008907 266.02048273 -60.90966797 273.6652832 C-66.13196279 293.8454527 -66.13196279 293.8454527 -72.09375 298.8359375 C-75.84375 300.0859375 -75.84375 300.0859375 -79.09375 300.8359375 C-81.23755698 297.34488298 -81.33908064 294.57146519 -81.32421875 290.515625 C-81.32292969 289.2663623 -81.32164062 288.01709961 -81.3203125 286.72998047 C-81.30782011 285.39029445 -81.294789 284.05061335 -81.28125 282.7109375 C-81.2744 281.34391442 -81.26789098 279.97688959 -81.26171875 278.60986328 C-81.21436501 271.30073193 -81.04845623 264.00734859 -80.59375 256.7109375 C-80.54992187 256.00630371 -80.50609375 255.30166992 -80.4609375 254.57568359 C-80.33937033 252.66238206 -80.21659884 250.74915716 -80.09375 248.8359375 C-79.34246005 236.50344207 -82.12264678 228.24552181 -90.09375 218.8359375 C-94.14697632 214.57436777 -98.33152413 210.45245839 -102.53125 206.3359375 C-104.7417349 204.16233142 -106.94890746 201.98543876 -109.15234375 199.8046875 C-109.67858841 199.28398682 -110.20483307 198.76328613 -110.74702454 198.22680664 C-114.23135294 194.75586154 -117.53808775 191.17801903 -120.72729492 187.43164062 C-122.40589449 185.47142501 -124.1881655 183.64140803 -126.03125 181.8359375 C-126.61777344 181.2584375 -127.20429687 180.6809375 -127.80859375 180.0859375 C-128.23269531 179.6734375 -128.65679688 179.2609375 -129.09375 178.8359375 C-123.44846204 173.04208933 -123.44846204 173.04208933 -119.21875 172.3984375 C-108.25520965 172.71104354 -97.08108781 182.64561699 -88.2890625 188.42578125 C-83.33101614 191.68442984 -78.36344585 194.92290653 -73.34375 198.0859375 C-72.63009277 198.55153076 -71.91643555 199.01712402 -71.18115234 199.49682617 C-66.62204412 202.34049337 -62.56040365 204.22884505 -57.09375 203.8359375 C-53.93076923 203.05387352 -51.06063543 201.79413261 -48.09375 200.4609375 C-46.71123047 199.86841187 -46.71123047 199.86841187 -45.30078125 199.26391602 C-43.14784963 198.34008596 -40.99836646 197.40819633 -38.8515625 196.47021484 C-34.61198059 194.61994911 -30.35332594 192.81537546 -26.09375 191.01171875 C-20.1408447 188.49001985 -14.19005643 185.96352492 -8.24290466 183.42828369 C-0.64818408 180.19113365 6.95228689 176.96861863 14.56640625 173.77734375 C15.34746231 173.44987656 16.12851837 173.12240936 16.9332428 172.78501892 C20.05153064 171.47778882 23.16983333 170.1705948 26.28848267 168.86422729 C35.5079893 164.99900834 44.69717917 161.07192837 53.8515625 157.0546875 C54.75432419 156.65886475 55.65708588 156.26304199 56.58720398 155.85522461 C60.9650272 153.934117 65.33941148 152.00565507 69.70922852 150.06640625 C71.27875276 149.37487327 72.84832997 148.68346048 74.41796875 147.9921875 C75.13481842 147.67117065 75.85166809 147.35015381 76.59024048 147.01940918 C79.53597096 145.72690993 81.65197479 144.8359375 84.90625 144.8359375 C81.9091928 140.03772914 78.49509088 136.04553723 74.59375 131.9609375 C73.33593468 130.62890892 72.07812227 129.29687758 70.8203125 127.96484375 C70.17352539 127.28309082 69.52673828 126.60133789 68.86035156 125.89892578 C65.71550229 122.57883878 62.5937111 119.23722901 59.46875 115.8984375 C58.2085116 114.55452031 56.94809413 113.21077102 55.6875 111.8671875 C53.18664158 109.20132399 50.68662574 106.53467539 48.1875 103.8671875 C41.09697711 96.29955228 33.99656784 88.74136147 26.88696289 81.19165039 C21.76702457 75.75361858 16.65734702 70.30605579 11.55078125 64.85546875 C7.00929381 60.00931129 2.45944676 55.17109323 -2.09375 50.3359375 C-9.77212832 42.18022435 -17.44709327 34.02141727 -25.09375 25.8359375 C-25.97764404 24.89016846 -25.97764404 24.89016846 -26.87939453 23.92529297 C-28.55766127 22.12711658 -30.23259896 20.32590957 -31.90625 18.5234375 C-32.40415039 17.99008789 -32.90205078 17.45673828 -33.41503906 16.90722656 C-39.04149676 10.828749 -39.04149676 10.828749 -39.21875 7.4609375 C-36.88147704 2.0073006 -30.44158202 -0.13545341 -25.28125 -2.4765625 C-15.89511146 -5.95874825 -8.6832063 -4.7668117 0 0 Z " fill="#F1F2F3" transform="translate(813.09375,262.1640625)"/>
<path d="M0 0 C4.38138105 1.73042268 8.62221308 3.72687188 12.875 5.75 C14.10635246 6.32856681 15.33779911 6.90693316 16.56933594 7.48510742 C28.89345033 13.30526094 40.97520615 19.58624782 53 26 C53 27.32 53 28.64 53 30 C26.88210768 51.15594387 -12.09695839 64.34581278 -43 76 C-44.10085938 76.41556152 -45.20171875 76.83112305 -46.3359375 77.25927734 C-59.57866337 82.22331472 -72.86259318 86.60341767 -86.50976562 90.30712891 C-88.90963485 90.97485722 -91.29074464 91.68650713 -93.671875 92.41796875 C-111.17139513 97.73993228 -129.09960866 101.31491158 -147 105 C-148.11632812 105.22993652 -149.23265625 105.45987305 -150.3828125 105.69677734 C-168.41296587 109.36591355 -186.50316046 111.84038802 -204.8125 113.625 C-206.70621338 113.80977905 -206.70621338 113.80977905 -208.63818359 113.99829102 C-212.42387727 114.35432239 -216.21080966 114.68345649 -220 115 C-221.12841309 115.09933838 -222.25682617 115.19867676 -223.41943359 115.30102539 C-237.91560231 116.40345932 -252.47088316 116.19959521 -267 116.1875 C-268.07350519 116.18709969 -268.07350519 116.18709969 -269.16869736 116.18669128 C-290.17069964 116.17684666 -311.08043969 116.09584753 -332 114 C-332.69557007 113.9321228 -333.39114014 113.86424561 -334.10778809 113.79431152 C-350.46727811 112.19635771 -366.78302493 110.44467388 -382.87890625 107.02734375 C-386.62276534 106.23711469 -390.37770037 105.61042739 -394.15553284 105.0115509 C-404.2765923 103.39754686 -414.18184401 101.22188554 -424.125 98.75 C-424.92936493 98.55169586 -425.73372986 98.35339172 -426.56246948 98.14907837 C-446.72234387 93.17307208 -466.47161747 87.25345631 -486.1875 80.75 C-486.98801788 80.48738373 -487.78853577 80.22476746 -488.61331177 79.95419312 C-490.90468999 79.20021844 -493.19296745 78.43752076 -495.48046875 77.671875 C-496.50855148 77.33471214 -496.50855148 77.33471214 -497.55740356 76.99073792 C-501.34762643 75.70925903 -504.65442107 74.1968564 -508 72 C-506.6125049 68.72720621 -505.14174809 67.05435812 -502.28125 64.96875 C-501.52215332 64.4106665 -500.76305664 63.85258301 -499.98095703 63.27758789 C-499.16224121 62.69098389 -498.34352539 62.10437988 -497.5 61.5 C-496.65937012 60.89212646 -495.81874023 60.28425293 -494.95263672 59.65795898 C-492.31063977 57.75916233 -489.65686296 55.87792569 -487 54 C-486.14954102 53.3930127 -485.29908203 52.78602539 -484.42285156 52.16064453 C-482.00298121 50.44205619 -479.56798682 48.74801875 -477.125 47.0625 C-476.38314453 46.5365625 -475.64128906 46.010625 -474.87695312 45.46875 C-474.17763672 44.99566406 -473.47832031 44.52257812 -472.7578125 44.03515625 C-472.1508252 43.6162915 -471.54383789 43.19742676 -470.91845703 42.76586914 C-466.88798549 41.15686059 -462.70495966 43.38191983 -458.84375 44.8203125 C-443.33077367 50.46781383 -427.94165419 54.68795873 -411.86035156 58.32568359 C-409.52741747 58.87566345 -407.23780518 59.4773603 -404.94140625 60.16015625 C-402.42872828 60.87758754 -400.21688565 61.30138807 -397.625 61.5 C-394.69194428 61.72649079 -391.93811571 62.2307377 -389.08203125 62.90625 C-322.72912447 77.97779996 -244.0968143 72.95256832 -178.44287109 57.55273438 C-175.18661913 56.81596099 -171.91201574 56.20263661 -168.63110352 55.58691406 C-148.75229694 51.82922578 -129.16518809 46.45601044 -110 40 C-108.43572266 39.47647949 -108.43572266 39.47647949 -106.83984375 38.94238281 C-81.16439775 30.31817868 -55.7540795 21.02150483 -31 10 C-30.08734375 9.59442871 -29.1746875 9.18885742 -28.234375 8.77099609 C-18.46632574 4.56947183 -18.46632574 4.56947183 -8.93237305 -0.11645508 C-5.78935776 -1.55354571 -3.19293125 -0.93238663 0 0 Z " fill="#F0F2F2" transform="translate(864,38)"/>
<path d="M0 0 C1.20075165 -0.00701431 2.4015033 -0.01402863 3.63864136 -0.02125549 C7.49220584 -0.03865311 11.34561643 -0.04510797 15.19921875 -0.046875 C17.17832748 -0.04788712 17.17832748 -0.04788712 19.19741821 -0.04891968 C39.2814856 -0.04145964 58.96949595 0.485091 78.88671875 3.203125 C80.18851074 3.37473145 81.49030273 3.54633789 82.83154297 3.72314453 C98.07827072 5.76013107 113.13260748 8.5164799 128.13671875 11.890625 C129.14270111 12.11606995 129.14270111 12.11606995 130.16900635 12.34606934 C141.94559441 15.0089319 141.94559441 15.0089319 145.88671875 17.203125 C128.72957797 24.71607012 111.53043453 31.8919713 93.88671875 38.203125 C93.19932617 38.4511084 92.51193359 38.6990918 91.80371094 38.95458984 C68.28598474 47.37139536 42.86380242 54.7726152 18.046875 57.87890625 C15.84379276 58.09562884 15.84379276 58.09562884 13.88671875 59.203125 C12.45894431 59.46213296 11.02294367 59.67657535 9.58447266 59.86743164 C8.6839064 59.9874353 7.78334015 60.10743896 6.85548401 60.2310791 C5.8680571 60.35720581 4.88063019 60.48333252 3.86328125 60.61328125 C2.83118027 60.74545044 1.79907928 60.87761963 0.73570251 61.01379395 C-36.72258129 65.72101729 -73.62772845 67.62286105 -111.11328125 62.203125 C-112.18433105 62.05327148 -113.25538086 61.90341797 -114.35888672 61.74902344 C-126.83656179 59.96622806 -138.927798 57.51719744 -150.98535156 53.84423828 C-153.16477196 53.18761162 -155.35158964 52.56467195 -157.54296875 51.94921875 C-166.27318208 49.47942383 -174.70650538 46.63893775 -183.11328125 43.203125 C-183.11328125 42.213125 -183.11328125 41.223125 -183.11328125 40.203125 C-125.47846274 16.14348936 -62.77517748 0.24780796 0 0 Z " fill="#EFF1F1" transform="translate(653.11328125,-0.203125)"/>
<path d="M0 0 C1.36328125 1.3828125 1.36328125 1.3828125 3.11328125 3.8828125 C2.2093188 6.92341347 1.58322144 8.54149261 -1.01953125 10.43188477 C-4.34128723 12.1128449 -7.44722881 12.94195503 -11.07421875 13.78515625 C-11.76475342 13.94763351 -12.45528809 14.11011078 -13.16674805 14.2775116 C-15.40472336 14.80094491 -17.64546752 15.31110528 -19.88671875 15.8203125 C-21.44146967 16.1799017 -22.99615684 16.53976662 -24.55078125 16.89990234 C-33.44988425 18.94714337 -42.36165657 20.83178761 -51.34936523 22.45166016 C-57.93743862 23.65327892 -64.43479965 25.14672948 -70.94921875 26.6953125 C-82.88811436 29.52109727 -94.89098524 31.90234984 -106.94555664 34.17114258 C-116.02069736 35.88773674 -125.05444787 37.75910796 -134.08203125 39.7109375 C-148.02046962 42.72284239 -161.98978905 45.5647154 -175.97460938 48.35253906 C-179.27778737 49.01136063 -182.58042416 49.67276916 -185.88279724 50.33560562 C-189.11289568 50.98342869 -192.3435829 51.62830068 -195.57421875 52.2734375 C-196.73687256 52.50677795 -197.89952637 52.74011841 -199.09741211 52.98052979 C-206.34047217 54.42091403 -213.5960389 55.70829894 -220.88671875 56.8828125 C-222.21125346 57.10047487 -223.53572713 57.3185094 -224.86010742 57.53710938 C-226.56517456 57.81651367 -226.56517456 57.81651367 -228.3046875 58.1015625 C-230.89453569 58.5286189 -233.48437939 58.95570256 -236.07421875 59.3828125 C-237.37552734 59.59550781 -238.67683594 59.80820312 -240.01757812 60.02734375 C-246.04204664 61.02378045 -252.01412742 62.07932124 -257.96166992 63.46289062 C-262.0496957 64.35463499 -266.21288951 64.78834643 -270.359375 65.3203125 C-273.544034 65.8281651 -276.59350241 66.56298576 -279.71264648 67.36962891 C-283.89335854 68.35647413 -288.14046952 68.9385332 -292.38671875 69.5703125 C-293.4742041 69.73474854 -294.56168945 69.89918457 -295.68212891 70.06860352 C-299.74937157 70.67991417 -303.81785861 71.28238151 -307.88671875 71.8828125 C-309.16645569 72.07194214 -309.16645569 72.07194214 -310.4720459 72.26489258 C-322.66659524 74.06630457 -334.86419749 75.84562346 -347.06509399 77.60353088 C-352.35764425 78.3673375 -357.64789693 79.14344276 -362.93501282 79.94398499 C-381.88474448 82.80686126 -400.86588969 84.86487378 -419.94921875 86.6328125 C-421.10021057 86.7399054 -422.25120239 86.84699829 -423.43707275 86.95733643 C-445.73154498 89.01377181 -467.72973957 90.05065351 -490.1237793 90.01318359 C-493.9738348 90.00777794 -497.82377593 90.01318488 -501.67382812 90.01953125 C-504.152344 90.01887111 -506.63085981 90.01759128 -509.109375 90.015625 C-510.8127578 90.01866135 -510.8127578 90.01866135 -512.55055237 90.02175903 C-519.05698393 90.00275311 -525.42771718 89.6782742 -531.88671875 88.8828125 C-533.85100881 81.30626513 -534.66325112 73.69834115 -535.46746826 65.9316864 C-535.54604443 65.17310679 -535.62462059 64.41452719 -535.70557785 63.63296032 C-535.76535435 63.05541154 -535.82513084 62.47786276 -535.88671875 61.8828125 C-534.62103058 61.95264343 -533.35534241 62.02247437 -532.05130005 62.09442139 C-519.1329365 62.77670524 -506.25130383 63.05816392 -493.31640625 63.0859375 C-491.28664635 63.09288064 -489.25688663 63.09987567 -487.22712708 63.10691833 C-480.73865545 63.12613934 -474.25021548 63.13084172 -467.76171875 63.1328125 C-466.10132254 63.13391714 -466.10132254 63.13391714 -464.40738297 63.1350441 C-425.4815669 63.15612783 -386.73722979 62.30725553 -347.88671875 59.8828125 C-345.98960464 59.76917505 -344.09247052 59.65587082 -342.1953125 59.54296875 C-321.5915419 58.29446925 -301.09021711 56.13096315 -280.57421875 53.8828125 C-279.42255219 53.75715912 -278.27088562 53.63150574 -277.08432007 53.50204468 C-264.86846693 52.15855163 -252.72680711 50.66279537 -240.62133789 48.53466797 C-236.01390128 47.73046742 -231.39577278 47.07257396 -226.76171875 46.4453125 C-186.37337076 40.78671305 -146.70527685 31.74026159 -107.19353485 21.76091385 C-103.76536229 20.89609696 -100.33599881 20.03602773 -96.90673828 19.17553711 C-91.30564707 17.7695817 -85.7050628 16.36162864 -80.10498047 14.95166016 C-68.62673009 12.06176121 -57.14723891 9.17683811 -45.66586304 6.29937744 C-42.32790373 5.46191763 -38.99070939 4.62145982 -35.65356445 3.78076172 C-33.6349615 3.27428208 -31.6163273 2.76792693 -29.59765625 2.26171875 C-28.6944313 2.03332809 -27.79120636 1.80493744 -26.86061096 1.56962585 C-6.11111663 -3.6185908 -6.11111663 -3.6185908 0 0 Z " fill="#EFF1F1" transform="translate(703.88671875,496.1171875)"/>
<path d="M0 0 C1.20125015 -0.00692368 2.40250031 -0.01384735 3.64015198 -0.02098083 C7.49320793 -0.03815319 11.34612633 -0.0445674 15.19921875 -0.046875 C16.51496887 -0.04821442 17.83071899 -0.04955383 19.18634033 -0.05093384 C39.26452528 -0.0554347 58.9746133 0.5552859 78.88671875 3.203125 C79.99708496 3.34717773 81.10745117 3.49123047 82.25146484 3.63964844 C88.14356255 4.41517898 94.01887265 5.26186641 99.88671875 6.203125 C99.88671875 6.533125 99.88671875 6.863125 99.88671875 7.203125 C99.06171875 7.36167969 98.23671875 7.52023438 97.38671875 7.68359375 C91.125983 8.94831827 85.08703234 10.38807174 79.01171875 12.390625 C56.60798125 19.66651898 33.39765195 24.32581065 10.26318359 28.57128906 C7.31360653 29.12324173 4.37508389 29.70833891 1.4375 30.3203125 C-20.63368156 34.87790462 -43.56900858 37.79583859 -66.11328125 38.203125 C-67.33595703 38.23422363 -68.55863281 38.26532227 -69.81835938 38.29736328 C-93.74427178 38.882767 -116.0458672 37.07426961 -139.11328125 30.203125 C-142.76900933 29.14746021 -146.41873293 28.11278475 -150.11328125 27.203125 C-101.25878042 12.02616447 -51.46274694 0.20267612 0 0 Z " fill="#1CB685" transform="translate(653.11328125,-0.203125)"/>
<path d="M0 0 C1.40121035 -0.01658237 2.80233533 -0.04390344 4.203125 -0.08203125 C18.19694984 -0.45931172 18.19694984 -0.45931172 24.17089844 3.78125 C28.51589542 8.33828454 29.22673532 12.78017946 29.6159668 18.88525391 C29.70948174 20.13525429 29.70948174 20.13525429 29.80488586 21.4105072 C29.93441316 23.17939555 30.0575721 24.94876017 30.17480469 26.71850586 C30.35027233 29.35290776 30.54668192 31.98504729 30.74682617 34.61767578 C31.39610786 43.49563673 31.83665612 52.38315459 31.9987793 61.28369141 C32.02735519 62.10627945 32.05593109 62.92886749 32.08537292 63.77638245 C32.12656414 69.10924184 31.30600857 72.18822894 27.66674805 76.35009766 C19.19223444 82.68796293 6.51923755 81.7118406 -3.58325195 81.97509766 C-4.81688477 82.01376953 -6.05051758 82.05244141 -7.3215332 82.09228516 C-10.32530133 82.18542525 -13.32908074 82.27124297 -16.33325195 82.35009766 C-20.95851116 27.05519824 -20.95851116 27.05519824 -20.33325195 1.35009766 C-13.54551671 0.27574859 -6.85460195 0.05927785 0 0 Z " fill="#F0F2F2" transform="translate(440.333251953125,661.64990234375)"/>
<path d="M0 0 C9.23146109 7.14593352 12.67780336 23.06375697 16.35351562 33.79150391 C16.8819961 35.30676285 17.41129009 36.82173831 17.94140625 38.33642578 C24.90155459 58.33023117 24.90155459 58.33023117 24.04101562 64.35400391 C19.37006105 72.24974563 11.96014798 75.27487211 3.52539062 77.63916016 C-0.70694959 78.85695616 -4.85383919 80.35405995 -8.83398438 82.24462891 C-11.48599695 83.50204866 -13.55017547 84.35963833 -16.50976562 84.31884766 C-18.95898438 83.35400391 -18.95898438 83.35400391 -20.36523438 80.68603516 C-20.72617187 79.52458984 -21.08710937 78.36314453 -21.45898438 77.16650391 C-21.87509995 75.88116912 -22.29178226 74.59601768 -22.70898438 73.31103516 C-22.91523437 72.65184082 -23.12148438 71.99264648 -23.33398438 71.31347656 C-24.29578483 68.29808187 -25.38069863 65.32939864 -26.45898438 62.35400391 C-28.12565104 57.68733724 -29.79231771 53.02067057 -31.45898438 48.35400391 C-31.87277344 47.19642578 -32.2865625 46.03884766 -32.71289062 44.84619141 C-33.53584962 42.53984236 -34.35621368 40.23256554 -35.17382812 37.92431641 C-36.94263266 32.94001735 -38.71793538 27.96194227 -40.60742188 23.02197266 C-40.88400635 22.29671387 -41.16059082 21.57145508 -41.44555664 20.82421875 C-41.98586528 19.41267642 -42.53045703 18.00276426 -43.07983398 16.59472656 C-44.19046383 13.69269936 -44.95898438 11.490795 -44.95898438 8.35400391 C-9.28899099 -5.16719284 -9.28899099 -5.16719284 0 0 Z " fill="#EFF1F1" transform="translate(829.958984375,582.64599609375)"/>
<path d="M0 0 C36.46003521 1.15910683 36.46003521 1.15910683 42.765625 7.3671875 C46.4501264 12.24098998 46.33487047 16.53617022 46.3125 22.4375 C46.32861328 23.28376953 46.34472656 24.13003906 46.36132812 25.00195312 C46.36508205 29.79571073 46.19405117 33.15502845 43 37 C40.3125 38.3125 40.3125 38.3125 38 39 C38.49371094 39.40992188 38.98742187 39.81984375 39.49609375 40.2421875 C40.13675781 40.78101563 40.77742188 41.31984375 41.4375 41.875 C42.07558594 42.40867187 42.71367187 42.94234375 43.37109375 43.4921875 C45.50248881 45.46513352 45.96695027 46.50550588 46.16113281 49.41088867 C46.20664269 52.66987188 46.23531031 55.92822492 46.25 59.1875 C46.270625 60.31220703 46.29125 61.43691406 46.3125 62.59570312 C46.34179561 68.82468314 46.19510048 73.57575965 43 79 C35.71654756 84.68109291 26.76593717 83.41464334 18 83 C16.88939209 82.95069336 16.88939209 82.95069336 15.75634766 82.90039062 C9.1081907 82.58836732 2.56614298 82.13344478 -4 81 C-2.94321754 53.98068908 -1.80685533 26.98082365 0 0 Z " fill="#F0F2F2" transform="translate(337,661)"/>
<path d="M0 0 C2.57567837 11.29637619 4.92732425 22.6002834 7 34 C7.47741505 36.56282692 7.95660711 39.12532339 8.4375 41.6875 C8.55730225 42.32969482 8.67710449 42.97188965 8.80053711 43.63354492 C9.53189668 47.54539076 10.28100682 51.45336854 11.04296875 55.359375 C11.222229 56.28403564 11.40148926 57.20869629 11.58618164 58.16137695 C11.93527072 59.95996865 12.28714565 61.75802278 12.64233398 63.55541992 C13.70122722 69.02698323 14.45149123 74.45334503 15 80 C12.27261765 80.53224551 9.54379566 81.05107996 6.8125 81.5625 C6.04357422 81.71396484 5.27464844 81.86542969 4.48242188 82.02148438 C0.363181 82.78168763 -2.89465369 83.24229918 -7 82 C-9.47184264 71.40638867 -11.18824365 60.8519007 -12 50 C-14.97 50.495 -14.97 50.495 -18 51 C-17.85377197 51.67466309 -17.70754395 52.34932617 -17.55688477 53.04443359 C-16.88641613 56.15342939 -16.22441693 59.26417277 -15.5625 62.375 C-15.33240234 63.43589844 -15.10230469 64.49679687 -14.86523438 65.58984375 C-13.49766565 72.05111049 -12.48613091 78.41186539 -12 85 C-14.56149628 85.50567729 -17.12399465 86.00470132 -19.6875 86.5 C-20.40873047 86.64308594 -21.12996094 86.78617188 -21.87304688 86.93359375 C-25.63841359 87.65571887 -29.14473813 88.1824976 -33 88 C-34.9939312 80.54695619 -36.96261485 73.16657252 -37.9375 65.5 C-38.76419657 59.06932488 -40.02775796 52.77855257 -41.375 46.4375 C-43.07810615 38.40630986 -44.75322414 30.37303061 -46.3125 22.3125 C-46.56942627 21.01300415 -46.56942627 21.01300415 -46.83154297 19.68725586 C-47.5880234 15.73915221 -48.22228046 12.04221131 -48 8 C-45.25071558 7.49576443 -42.50068857 6.99646574 -39.75 6.5 C-38.97269531 6.35691406 -38.19539062 6.21382812 -37.39453125 6.06640625 C-36.64042969 5.93105469 -35.88632812 5.79570313 -35.109375 5.65625 C-34.07248535 5.46772461 -34.07248535 5.46772461 -33.01464844 5.27539062 C-31 5 -31 5 -27 5 C-25.4226428 10.19156261 -24.29473432 15.34271737 -23.375 20.6875 C-23.2409375 21.43322266 -23.106875 22.17894531 -22.96875 22.94726562 C-22.37027977 26.37014895 -22 29.51379359 -22 33 C-20.35 32.34 -18.7 31.68 -17 31 C-18.39840281 20.40514747 -18.39840281 20.40514747 -20.6328125 9.96484375 C-21.07186855 7.61542679 -21.05785734 5.38454909 -21 3 C-18.6263603 2.49265716 -16.25142575 1.99397614 -13.875 1.5 C-12.87726562 1.28537109 -12.87726562 1.28537109 -11.859375 1.06640625 C-7.83943578 0.2387717 -4.10095101 -0.15330658 0 0 Z " fill="#EFF1F1" transform="translate(614,639)"/>
<path d="M0 0 C1.19506836 2.75292969 1.19506836 2.75292969 2.33984375 6.421875 C2.54807266 7.07770569 2.75630157 7.73353638 2.97084045 8.40924072 C3.63783048 10.51942781 4.28779812 12.63443385 4.9375 14.75 C5.37064183 16.12925311 5.80487542 17.50816387 6.24023438 18.88671875 C8.2421141 25.2461176 10.19066831 31.62181204 12.14453125 37.99609375 C13.22150097 41.50675996 14.31915434 45.00592917 15.484375 48.48828125 C15.69707031 49.13216797 15.90976562 49.77605469 16.12890625 50.43945312 C16.55036037 51.71044211 16.98034915 52.97862664 17.41796875 54.24414062 C19.58455267 60.89864836 20.08655372 67.55849659 17 74 C12.13098924 80.71897791 7.32393514 84.63390216 -1 86 C-16.30734778 87.27426815 -16.30734778 87.27426815 -21.6875 83.6875 C-29.62694659 76.13025871 -31.64293972 63.89984505 -34.58984375 53.7421875 C-35.88981846 49.29531749 -37.42276853 44.97527795 -39.06640625 40.64453125 C-40.61929063 36.24577506 -41.80428142 31.74331163 -43.05078125 27.25 C-43.84261036 24.53888139 -44.72128894 21.93981838 -45.75 19.3125 C-47 16 -47 16 -47 13 C-44.25336296 12.13343002 -41.5035757 11.28148214 -38.75 10.4375 C-37.97269531 10.19064453 -37.19539062 9.94378906 -36.39453125 9.68945312 C-35.64042969 9.46064453 -34.88632812 9.23183594 -34.109375 8.99609375 C-33.41811523 8.78138428 -32.72685547 8.5666748 -32.01464844 8.34545898 C-29.45488233 7.90652672 -28.3243469 7.75908771 -26 9 C-24.83147727 11.5045846 -23.97007452 13.78831342 -23.16015625 16.41015625 C-22.91132187 17.16985214 -22.66248749 17.92954803 -22.40611267 18.71226501 C-21.6093264 21.15761227 -20.83578366 23.60963171 -20.0625 26.0625 C-19.54641709 27.65738565 -19.02885385 29.25179309 -18.50976562 30.84570312 C-16.98177924 35.55608526 -15.48707994 40.27656893 -14 45 C-13.76155365 45.75488708 -13.5231073 46.50977417 -13.2774353 47.28753662 C-10.68955694 55.48418042 -8.16807522 63.68023167 -6 72 C-4.02 71.505 -4.02 71.505 -2 71 C-2.54740174 64.65743856 -4.10705313 59.265544 -6.3125 53.3125 C-6.95487171 51.52797154 -7.59550111 49.74281494 -8.234375 47.95703125 C-8.54181641 47.10061035 -8.84925781 46.24418945 -9.16601562 45.36181641 C-10.95515789 40.29502417 -12.47116973 35.14974408 -14 30 C-14.51220543 28.31225232 -15.02530103 26.62477466 -15.5390625 24.9375 C-16.08875426 23.12506446 -16.63823315 21.31256435 -17.1875 19.5 C-17.58110718 18.20739258 -17.58110718 18.20739258 -17.98266602 16.88867188 C-19.17001726 12.9471154 -20.30847411 9.06583898 -21 5 C-18.06746654 3.96448955 -15.12833062 2.94918162 -12.1875 1.9375 C-11.35412109 1.64294922 -10.52074219 1.34839844 -9.66210938 1.04492188 C-8.85966797 0.77099609 -8.05722656 0.49707031 -7.23046875 0.21484375 C-6.49207764 -0.04176025 -5.75368652 -0.29836426 -4.99291992 -0.56274414 C-3 -1 -3 -1 0 0 Z " fill="#EFF1F1" transform="translate(779,595)"/>
<path d="M0 0 C4.40403042 2.44566199 6.39121333 5.78223282 8.18359375 10.4765625 C8.88136377 14.09227986 9.02100903 17.36613824 8.87109375 21.0390625 C-4.76216365 24.48325384 -4.76216365 24.48325384 -11.12890625 24.0390625 C-11.18949219 23.41257812 -11.25007812 22.78609375 -11.3125 22.140625 C-11.39628906 21.32335937 -11.48007812 20.50609375 -11.56640625 19.6640625 C-11.64761719 18.85195313 -11.72882812 18.03984375 -11.8125 17.203125 C-12.01980739 14.99633445 -12.01980739 14.99633445 -13.12890625 13.0390625 C-14.44890625 13.3690625 -15.76890625 13.6990625 -17.12890625 14.0390625 C-17.23203125 15.2559375 -17.33515625 16.4728125 -17.44140625 17.7265625 C-17.49941406 18.41105469 -17.55742188 19.09554687 -17.6171875 19.80078125 C-16.83758306 23.37448799 -14.91803474 24.73957295 -12.12890625 27.0390625 C-8.71862857 28.92965251 -5.13015468 30.39421003 -1.54296875 31.91210938 C4.52551568 34.59416276 9.89678954 37.76374243 13.39453125 43.56640625 C15.10430091 48.40552496 16.50911675 52.88089026 16.87109375 58.0390625 C16.93425781 58.91820312 16.99742187 59.79734375 17.0625 60.703125 C17.24873518 65.16075412 17.20126833 68.29616969 15.37109375 72.4140625 C9.79385238 78.27016594 3.16746241 81.65971167 -4.93359375 82.375 C-19.70547452 82.70206597 -19.70547452 82.70206597 -25.12890625 78.0390625 C-31.22915612 70.49401661 -31.55801624 63.45874773 -32.12890625 54.0390625 C-25.52890625 53.3790625 -18.92890625 52.7190625 -12.12890625 52.0390625 C-11.46890625 56.6590625 -10.80890625 61.2790625 -10.12890625 66.0390625 C-8.47890625 66.3690625 -6.82890625 66.6990625 -5.12890625 67.0390625 C-5.07418537 65.64367996 -5.03579087 64.24765353 -5.00390625 62.8515625 C-4.98070312 62.07425781 -4.9575 61.29695312 -4.93359375 60.49609375 C-5.18247335 57.36518844 -5.44188005 55.74252198 -7.12890625 53.0390625 C-10.01770661 51.10167973 -13.11377269 49.648748 -16.25390625 48.1640625 C-32.82243162 40.26571267 -32.82243162 40.26571267 -36.06640625 31.8515625 C-36.41703125 30.5934375 -36.76765625 29.3353125 -37.12890625 28.0390625 C-37.39767578 27.12640625 -37.39767578 27.12640625 -37.671875 26.1953125 C-38.84451304 20.66286637 -39.3093756 14.10934152 -37.2578125 8.7734375 C-29.49959148 -2.927486 -12.268604 -4.8173968 0 0 Z " fill="#EFF1F1" transform="translate(554.12890625,651.9609375)"/>
<path d="M0 0 C5.642309 3.92508452 7.83420637 8.87449992 9.1875 15.5 C9.43330221 16.9973639 9.66860398 18.49669762 9.875 20 C7.45990559 20.67286212 5.04319644 21.33846012 2.625 22 C1.94308594 22.19078125 1.26117187 22.3815625 0.55859375 22.578125 C-2.83100912 23.49957044 -5.58278976 24 -9.125 24 C-10.445 20.7 -11.765 17.4 -13.125 14 C-14.445 14 -15.765 14 -17.125 14 C-17.42203753 19.04963798 -17.36647615 22.03542533 -14.125 26 C-11.34562749 27.52329909 -8.42975661 28.53444094 -5.4375 29.5625 C13.4332889 36.30095072 13.4332889 36.30095072 18.91015625 47.02734375 C21.55907188 53.64347255 21.73887105 60.98739967 20.875 68 C17.72226464 74.45168454 12.38853532 78.22828284 5.875 81 C-1.53894462 82.82141892 -10.88716468 83.85145937 -17.75 80 C-21.65220162 77.03798768 -23.45532066 73.52507299 -25.125 69 C-25.42277344 68.20464844 -25.72054687 67.40929687 -26.02734375 66.58984375 C-27.21171212 63.23322372 -28.125 60.58421265 -28.125 57 C-25.70990559 56.32713788 -23.29319644 55.66153988 -20.875 55 C-20.19308594 54.80921875 -19.51117187 54.6184375 -18.80859375 54.421875 C-15.41899088 53.50042956 -12.66721024 53 -9.125 53 C-8.70927734 54.26457031 -8.70927734 54.26457031 -8.28515625 55.5546875 C-7.92292969 56.65039062 -7.56070313 57.74609375 -7.1875 58.875 C-6.82785156 59.96554687 -6.46820312 61.05609375 -6.09765625 62.1796875 C-5.22585926 64.90758682 -5.22585926 64.90758682 -4.125 67 C-2.805 67 -1.485 67 -0.125 67 C-0.04295172 65.60517921 0.01466204 64.20891272 0.0625 62.8125 C0.09730469 62.03519531 0.13210938 61.25789062 0.16796875 60.45703125 C-0.21442871 57.2499912 -1.143526 55.54760943 -3.125 53 C-5.66434467 51.50450881 -5.66434467 51.50450881 -8.625 50.5 C-10.22214844 49.88125 -10.22214844 49.88125 -11.8515625 49.25 C-13.47191406 48.63125 -13.47191406 48.63125 -15.125 48 C-24.22771293 44.23660447 -31.02227223 41.2146731 -35.36328125 31.96484375 C-37.84805316 25.55540647 -38.03402297 18.77222116 -37.125 12 C-30.79610819 -0.61919282 -12.56304008 -4.35518723 0 0 Z " fill="#EFF1F1" transform="translate(677.125,627)"/>
<path d="M0 0 C0.92037377 5.40719589 1.08441199 10.51322045 1 16 C-5.435 16.495 -5.435 16.495 -12 17 C-11.67 21.95 -11.34 26.9 -11 32 C-4.565 31.505 -4.565 31.505 2 31 C3.35992692 36.52470311 4.2417234 41.31950015 4 47 C-0.29 47 -4.58 47 -9 47 C-8.7525 48.3921875 -8.7525 48.3921875 -8.5 49.8125 C-7.76156514 54.8671386 -7.93705835 59.90172619 -8 65 C-0.08 64.505 -0.08 64.505 8 64 C8.68543143 68.11258859 9.11726187 71.32262138 9.0625 75.375 C9.05347656 76.24898437 9.04445313 77.12296875 9.03515625 78.0234375 C9.02355469 78.67570313 9.01195312 79.32796875 9 80 C-2.77717294 81.98534994 -15.01667099 83.87058373 -27 83 C-28.50197141 81.49802859 -28.27014118 80.10021852 -28.44287109 78.00170898 C-28.51631744 77.14625992 -28.58976379 76.29081085 -28.66543579 75.40943909 C-28.74232635 74.46866013 -28.81921692 73.52788116 -28.8984375 72.55859375 C-29.07268201 70.53619085 -29.24818914 68.51389643 -29.42480469 66.49169922 C-29.5175769 65.42715515 -29.61034912 64.36261108 -29.70593262 63.26580811 C-30.189743 57.89278145 -30.73884512 52.52672449 -31.2890625 47.16015625 C-31.39837097 46.085914 -31.50767944 45.01167175 -31.62030029 43.90487671 C-32.06892884 39.49695516 -32.5191191 35.08920365 -32.97363281 30.68188477 C-33.31108118 27.40412048 -33.64415136 24.12593468 -33.9765625 20.84765625 C-34.07965729 19.85911148 -34.18275208 18.87056671 -34.28897095 17.85206604 C-34.7908415 12.87078899 -35.11347742 8.00643303 -35 3 C-23.31900655 1.05944786 -11.85145704 -0.23598034 0 0 Z " fill="#F0F1F2" transform="translate(510,656)"/>
<path d="M0 0 C0.27950235 2.24917187 0.54931005 4.49888055 0.8125 6.75 C0.90233154 7.51062744 0.99216309 8.27125488 1.0847168 9.05493164 C1.74785972 14.97079121 2.21849953 20.88656708 2.625 26.82421875 C2.79730266 29.22480365 2.97098859 31.6252856 3.14486694 34.02575684 C3.25562549 35.61924429 3.35897524 37.21326597 3.45449829 38.80773926 C4.04409995 48.60360642 5.24636514 56.23021713 10 65 C11.00639054 67.31191753 11.90398587 69.64651577 12.8125 72 C13.23144531 73.0725 13.65039062 74.145 14.08203125 75.25 C15 78 15 78 15 81 C12.58660204 82.00858422 10.16981325 83.00702673 7.75 84 C7.06808594 84.28617188 6.38617187 84.57234375 5.68359375 84.8671875 C2.18584265 86.29345494 -0.16900189 87 -4 87 C-4.30292969 86.14019531 -4.60585938 85.28039062 -4.91796875 84.39453125 C-5.80073646 81.9037682 -6.69247382 79.4175913 -7.59375 76.93359375 C-8.47539685 74.49774647 -9.30039278 72.06556389 -10.09375 69.59765625 C-12.85382783 61.46528408 -16.91085768 56.04652365 -22.57470703 49.66894531 C-25.20645316 46.58730493 -27.59140158 43.31946331 -30 40.0625 C-32.96074392 36.06748103 -35.92149121 32.07777478 -38.984375 28.16015625 C-39.45101562 27.56259521 -39.91765625 26.96503418 -40.3984375 26.34936523 C-41.27994622 25.22470915 -42.16519728 24.10297333 -43.0546875 22.98461914 C-46 19.2194711 -46 19.2194711 -46 17 C-40.04901126 14.78317598 -34.13847182 12.63692582 -28 11 C-22.84874133 18.07710917 -18.30668986 25.38147872 -14 33 C-14.12117187 32.32420898 -14.24234375 31.64841797 -14.3671875 30.95214844 C-14.91501142 27.885388 -15.45756017 24.81771713 -16 21.75 C-16.19078125 20.68652344 -16.3815625 19.62304688 -16.578125 18.52734375 C-16.75859375 17.50253906 -16.9390625 16.47773437 -17.125 15.421875 C-17.29257812 14.47924805 -17.46015625 13.53662109 -17.6328125 12.56542969 C-18 10 -18 10 -18 6 C-17.26394531 5.73445312 -16.52789063 5.46890625 -15.76953125 5.1953125 C-14.79371094 4.84210937 -13.81789063 4.48890625 -12.8125 4.125 C-11.36810547 3.60292969 -11.36810547 3.60292969 -9.89453125 3.0703125 C-8.00355641 2.37108564 -6.12470411 1.63789471 -4.26171875 0.8671875 C-2 0 -2 0 0 0 Z " fill="#EFF1F1" transform="translate(878,556)"/>
<path d="M0 0 C2.05362055 5.08940744 3.43179252 9.54520815 4 15 C2.54293274 15.50367757 1.08429904 16.00282556 -0.375 16.5 C-1.18710937 16.7784375 -1.99921875 17.056875 -2.8359375 17.34375 C-5 18 -5 18 -7 18 C-4.45102377 28.72449448 -1.68392337 39.33851578 1.5625 49.875 C1.8610791 50.844375 2.1596582 51.81375 2.46728516 52.8125 C3.04546543 54.68464198 3.62437399 56.55655924 4.20410156 58.42822266 C5.29961475 61.96814166 6.38197353 65.5103914 7.4375 69.0625 C7.74558594 70.08472656 8.05367187 71.10695313 8.37109375 72.16015625 C9.04170887 75.18833758 9.11485064 77.90822088 9 81 C-4.33687294 86.14756499 -4.33687294 86.14756499 -11 86 C-11.18062988 85.34741211 -11.36125977 84.69482422 -11.54736328 84.02246094 C-14.67008519 72.75856827 -17.80371388 61.50121543 -21.1875 50.3125 C-21.43145508 49.50530518 -21.67541016 48.69811035 -21.92675781 47.86645508 C-22.28205566 46.69119263 -22.28205566 46.69119263 -22.64453125 45.4921875 C-23.90797468 41.31289903 -25.15347435 37.12926171 -26.375 32.9375 C-26.69210937 31.85339844 -27.00921875 30.76929688 -27.3359375 29.65234375 C-28 27 -28 27 -28 24 C-28.60328125 24.2165625 -29.2065625 24.433125 -29.828125 24.65625 C-30.62734375 24.9346875 -31.4265625 25.213125 -32.25 25.5 C-33.03890625 25.7784375 -33.8278125 26.056875 -34.640625 26.34375 C-37 27 -37 27 -41 27 C-41.50636607 25.25183142 -42.00484619 23.50137737 -42.5 21.75 C-42.7784375 20.77546875 -43.056875 19.8009375 -43.34375 18.796875 C-44 16 -44 16 -44 12 C-35.93646077 8.88498225 -27.79967475 6.48467782 -19.4375 4.3125 C-17.12321026 3.70628572 -14.80938203 3.09830591 -12.49609375 2.48828125 C-11.48732178 2.22571533 -10.4785498 1.96314941 -9.43920898 1.69262695 C-3.18330688 -0.08377123 -3.18330688 -0.08377123 0 0 Z " fill="#EFF1F1" transform="translate(729,610)"/>
<path d="M0 0 C6.93 0 13.86 0 21 0 C21 26.73 21 53.46 21 81 C14.07 81 7.14 81 0 81 C0 54.27 0 27.54 0 0 Z " fill="#F2F2F3" transform="translate(392,663)"/>
<path d="M0 0 C3.1875 0.375 3.1875 0.375 5.08984375 2.29296875 C7.85237796 6.35188772 9.87927421 10.61418464 11.9375 15.0625 C12.34871094 15.92939453 12.75992188 16.79628906 13.18359375 17.68945312 C16.1875 24.1014457 16.1875 24.1014457 16.1875 26.375 C13.5475 27.365 10.9075 28.355 8.1875 29.375 C7.64480469 28.27800781 7.10210938 27.18101562 6.54296875 26.05078125 C5.8204203 24.59630061 5.09775804 23.1418765 4.375 21.6875 C3.84036133 20.6056543 3.84036133 20.6056543 3.29492188 19.50195312 C0.34215644 12.43045301 0.34215644 12.43045301 -4.8125 7.375 C-1.95376874 13.77369209 0.99860501 20.08158673 4.26953125 26.28125 C5.1875 28.375 5.1875 28.375 5.1875 31.375 C2.375 32.9375 2.375 32.9375 -0.8125 34.375 C-3.8125 33.375 -3.8125 33.375 -5.56640625 29.953125 C-6.18024968 28.51505362 -6.78267111 27.07206584 -7.375 25.625 C-7.67857422 24.90828125 -7.98214844 24.1915625 -8.29492188 23.453125 C-9.84524406 19.77828723 -11.34506634 16.0837378 -12.8125 12.375 C-13.4725 12.375 -14.1325 12.375 -14.8125 12.375 C-12.85431452 17.36420662 -10.86365125 22.3165885 -8.625 27.1875 C-7.24763874 30.23389903 -6.24396409 33.03115327 -5.8125 36.375 C-10.4375 39.375 -10.4375 39.375 -13.8125 39.375 C-15.84935479 35.27859442 -17.86418884 31.17174427 -19.875 27.0625 C-20.45572266 25.89525391 -21.03644531 24.72800781 -21.63476562 23.52539062 C-22.17939453 22.40712891 -22.72402344 21.28886719 -23.28515625 20.13671875 C-23.79312744 19.10506592 -24.30109863 18.07341309 -24.82446289 17.01049805 C-25.8125 14.375 -25.8125 14.375 -24.8125 11.375 C-22.49995988 10.32781202 -20.1639852 9.33153635 -17.8125 8.375 C-17.173125 7.818125 -16.53375 7.26125 -15.875 6.6875 C-12.60906667 4.60917879 -9.62671815 5.18428909 -5.8125 5.375 C-5.503125 4.735625 -5.19375 4.09625 -4.875 3.4375 C-3.33310738 0.44441432 -3.33310738 0.44441432 0 0 Z " fill="#EBF0EE" transform="translate(898.8125,648.625)"/>
<path d="M0 0 C6.44908161 4.2760215 9.90389739 11.15101628 11.58984375 18.609375 C11.88877468 22.95480998 11.37039132 24.54413376 8.5625 28 C4.72338945 30.59276424 0.60241953 31.66726528 -4 31 C-6.55744248 28.91836077 -7.44537642 27.7891776 -9 25 C-9.53882813 24.05511719 -10.07765625 23.11023438 -10.6328125 22.13671875 C-15.58410976 12.89045898 -15.58410976 12.89045898 -15 7 C-11.05977612 0.80821962 -7.27452896 -0.76573989 0 0 Z " fill="#ECF0EF" transform="translate(869,665)"/>
<path d="M0 0 C3 2.25 3 2.25 5 5 C5.1875 7.1875 5.1875 7.1875 4 9 C0.9375 10.25 0.9375 10.25 -2 11 C-3.65 9.35 -5.3 7.7 -7 6 C-5.74606955 8.82034055 -4.4691052 11.62963992 -3.1875 14.4375 C-2.65286133 15.64116211 -2.65286133 15.64116211 -2.10742188 16.86914062 C-1.75615234 17.63291016 -1.40488281 18.39667969 -1.04296875 19.18359375 C-0.72352295 19.89056396 -0.40407715 20.59753418 -0.07495117 21.32592773 C0.97020745 23.33863422 0.97020745 23.33863422 4 24 C2.515 20.535 2.515 20.535 1 17 C3.25 15.4375 3.25 15.4375 6 14 C8.171875 14.41015625 8.171875 14.41015625 10 15 C11.59598014 22.96255309 11.59598014 22.96255309 9.3125 26.9375 C5.92199342 29.96146533 4.09513193 30.84070808 -0.4375 31.5 C-4 31 -4 31 -6.5625 28.75 C-11.07569198 22.43153123 -15.8907855 14.97253019 -15 7 C-10.52861326 1.68267523 -7.06235979 -0.85235377 0 0 Z " fill="#EAEFEE" transform="translate(848,675)"/>
<path d="M0 0 C1.98 0 3.96 0 6 0 C9.41271079 7.70125002 12.22899717 15.47643016 14.82739258 23.48144531 C16.17393705 27.60646935 17.61057388 31.62917345 19.3125 35.625 C21.0492916 39.77600398 21.66807786 43.51905107 22 48 C20.35 48.66 18.7 49.32 17 50 C14.81537757 45.04258757 12.89735444 40.05526954 11.125 34.9375 C10.60041979 33.43874629 10.07567765 31.94004925 9.55078125 30.44140625 C9.29119629 29.69777832 9.03161133 28.95415039 8.76416016 28.18798828 C5.29530507 17.93700942 5.29530507 17.93700942 1.1875 7.9375 C0.01003962 5.02483486 -0.28214163 3.10355793 0 0 Z " fill="#27B889" transform="translate(810,597)"/>
<path d="M0 0 C1.66611905 -0.042721 3.33382885 -0.04063832 5 0 C11.17564231 6.17564231 8.22815448 32.79708402 8.3125 41.625 C8.32998291 42.54756592 8.34746582 43.47013184 8.36547852 44.4206543 C8.36439087 45.68582886 8.36439087 45.68582886 8.36328125 46.9765625 C8.36775269 48.07605225 8.36775269 48.07605225 8.37231445 49.19775391 C8 51 8 51 5 53 C4.01 53 3.02 53 2 53 C-0.38776806 14.92907039 -0.38776806 14.92907039 0 0 Z " fill="#27B889" transform="translate(442,676)"/>
<path d="M0 0 C2.97 0.495 2.97 0.495 6 1 C6.05791844 4.12492251 6.09356746 7.24970766 6.125 10.375 C6.14175781 11.26445313 6.15851563 12.15390625 6.17578125 13.0703125 C6.18222656 13.92109375 6.18867188 14.771875 6.1953125 15.6484375 C6.20578613 16.43395996 6.21625977 17.21948242 6.22705078 18.02880859 C6 20 6 20 4 22 C2.35 22 0.7 22 -1 22 C-0.67 14.74 -0.34 7.48 0 0 Z " fill="#23B787" transform="translate(356,707)"/>
<path d="M0 0 C4.875 0.875 4.875 0.875 6 2 C6.12548989 3.95530764 6.17575363 5.91570479 6.1875 7.875 C6.20167969 8.94492187 6.21585937 10.01484375 6.23046875 11.1171875 C6 14 6 14 4 17 C1.375 17.1875 1.375 17.1875 -1 17 C-1.02699725 14.72923158 -1.04639453 12.45837179 -1.0625 10.1875 C-1.07990234 8.29064453 -1.07990234 8.29064453 -1.09765625 6.35546875 C-1 3 -1 3 0 0 Z " fill="#2CB98A" transform="translate(358,677)"/>
<path d="M0 0 C1.1875 3.0625 1.1875 3.0625 2 6 C-0.64738916 7.4606285 -1.89448334 8 -5 8 C-7 5 -7 5 -7 1 C-3.375 -1.125 -3.375 -1.125 0 0 Z " fill="#E0ECE7" transform="translate(839,704)"/>
<path d="M0 0 C3.17836823 1.05715291 3.98645676 1.97667208 5.703125 4.93359375 C6.21359375 6.08988281 6.7240625 7.24617187 7.25 8.4375 C7.77078125 9.59121094 8.2915625 10.74492188 8.828125 11.93359375 C10 15 10 15 10 18 C7 17 7 17 5.17578125 13.9453125 C4.54428471 12.67700156 3.92357235 11.40327661 3.3125 10.125 C2.99216797 9.48691406 2.67183594 8.84882812 2.34179688 8.19140625 C0.91709056 5.28123856 0 3.28002036 0 0 Z " fill="#2DB98B" transform="translate(862,671)"/>
<path d="M0 0 C2.62187494 1.04874998 3.79371361 1.64931313 5.25 4.125 C5.4975 4.74375 5.745 5.3625 6 6 C4.68 6 3.36 6 2 6 C0 3 0 3 0 0 Z " fill="#42BD93" transform="translate(841,681)"/>
<path d="M0 0 C1.9375 0.75 1.9375 0.75 4 2 C4.75 4.125 4.75 4.125 5 6 C4.01 6 3.02 6 2 6 C0 3 0 3 0 0 Z " fill="#41BD93" transform="translate(862,671)"/>
</svg>
